<?xml version="1.0" encoding="utf-8"?>
<!-- Generator: Adobe Illustrator 19.2.1, SVG Export Plug-In . SVG Version: 6.00 Build 0)  -->
<svg version="1.1" id="layer" xmlns="http://www.w3.org/2000/svg" xmlns:xlink="http://www.w3.org/1999/xlink" x="0px" y="0px"
	 viewBox="0 0 652 652" style="enable-background:new 0 0 652 652;" xml:space="preserve">
<style type="text/css">
	.st0{fill:#0070BA;}
</style>
<g>
	<path class="st0" d="M20.9,337l44.8,0.1v42.3c0.1,2.5,2.6,9.8,11.1,9.8c10.6,0,13.3-7.7,13.3-9.6V224.1h45.3v153.4
		c0,31.3-33.7,43.2-54.3,42.9c-38.5-0.6-59.1-20-59.8-36.5L20.9,337z"/>
	<path class="st0" d="M268.4,370.5c0,42.8-32.9,49.9-57,49.9c-22.2,0-57.5-7.1-57.5-49.9V224h45.4v155.2c0,4.3,3,10.1,12,10.1
		c9,0,11.6-5.4,11.6-10.1V224h45.4V370.5z"/>
	<path class="st0" d="M286.9,224.1h54.4c42.5,0,57.5,9.8,57.5,46v5.1c0,24-13.3,34.5-32.5,37.7l7.3,0.9c20.3,4.3,27.6,19,27.3,32.3
		v48.1c0,0-0.7,15.1,6.2,22.3h-45.5c-6.1-7.2-6.2-22.3-6.2-22.3v-52c-0.5-9.2-2.6-15.9-16.4-15.9h-8.4v90.1h-43.7V224.1z
		 M330.4,301.8h8.7c11,0,14.4-7,14.4-14.4v-26.8c0-8.7-3.1-13.8-14.4-13.8h-8.7V301.8z"/>
	<rect x="415.9" y="224" class="st0" width="45.6" height="192.4"/>
	<path class="st0" d="M476.9,224.1H532c35.7,0,57.8,12.7,57.8,54.1v86.6c0,32.6-19.9,51.7-55.7,51.7h-57.3V224.1z M520.5,392.7h9.6
		c9.8,0,14.4-4.3,14.4-18.7V265.5c0-14.4-5.3-18.7-15.1-18.7h-8.9V392.7z"/>
	<path class="st0" d="M593.4,239.1c0-7.2,5.4-12.5,12.3-12.5c6.8,0,12.2,5.4,12.2,12.5c0,7.2-5.3,12.6-12.2,12.6
		C598.8,251.7,593.4,246.4,593.4,239.1 M605.7,254.2c8.2,0,15.2-6.3,15.2-15.1c0-8.7-7-15-15.2-15c-8.3,0-15.3,6.3-15.3,15
		C590.4,247.9,597.4,254.2,605.7,254.2 M602.5,240.3h3l4.6,7.5h2.9l-4.9-7.6c2.5-0.3,4.5-1.7,4.5-4.8c0-3.4-2-5-6.1-5h-6.6v17.4h2.6
		V240.3z M602.5,238.1v-5.4h3.6c1.8,0,3.8,0.4,3.8,2.6c0,2.7-2,2.8-4.2,2.8H602.5z"/>
</g>
</svg>
