<svg xmlns="http://www.w3.org/2000/svg" viewBox="0 0 639.64 110.19">
  <title>logo-kent</title>
  <g>
    <polygon points="111.37 110.19 60.71 44.57 109.76 0 76.5 0 24.98 46.4 24.98 0 0 0 0 110.19 24.98 110.19 24.98 75.68 43.03 59.91 80.14 110.19 111.37 110.19 111.37 110.19" style="fill: #003865"/>
    <polygon points="339.31 110.19 339.31 0 313.92 0 313.92 67.16 253.98 0 233.04 0 233.04 110.19 258.42 110.19 258.42 43.04 318.36 110.19 339.31 110.19 339.31 110.19" style="fill: #003865"/>
    <polygon points="455.27 24.14 455.27 0 352.01 0 352.01 24.14 390.08 24.14 390.08 110.19 415.46 110.19 415.46 24.14 455.27 24.14 455.27 24.14" style="fill: #003865"/>
    <polygon points="215.35 24.29 215.35 0 144.71 0 119.39 0 119.36 0 119.36 110.19 119.39 110.19 144.71 110.19 215.35 110.19 215.35 85.91 144.71 85.91 144.71 66.8 192.24 66.8 192.24 42.51 144.71 42.51 144.71 24.29 215.35 24.29" style="fill: #003865"/>
    <polygon points="526.04 51.15 559.82 20.89 593.61 51.15 639.64 51.15 582.89 0 536.86 0 536.87 0 536.75 0 480.01 51.15 526.04 51.15 526.04 51.15" style="fill: #003865"/>
    <polygon points="593.5 57.95 559.8 89.08 525.91 57.95 479.88 57.95 536.63 110.05 537.99 110.04 582.78 110.04 639.53 57.95 593.5 57.95 593.5 57.95" style="fill: #9d9d9c"/>
  </g>
</svg>
