<?xml version="1.0" encoding="UTF-8" standalone="no"?><!DOCTYPE svg PUBLIC "-//W3C//DTD SVG 1.1//EN" "http://www.w3.org/Graphics/SVG/1.1/DTD/svg11.dtd"><svg width="100%" height="100%" viewBox="0 0 2890 302" version="1.1" xmlns="http://www.w3.org/2000/svg" xmlns:xlink="http://www.w3.org/1999/xlink" xml:space="preserve" xmlns:serif="http://www.serif.com/" style="fill-rule:evenodd;clip-rule:evenodd;stroke-linejoin:round;stroke-miterlimit:2;"><path d="M192.112,193.412l-73.65,0l37.138,-75.212l36.512,75.212Zm-192.112,108.163l65.154,-0l24.513,-49.392l131.175,0l24.146,49.392l64.775,-0l-154.117,-301.575l-155.646,301.575Z" style="fill:#fff;fill-rule:nonzero;"/><path d="M904.208,0.971l-227.529,-0l0,58.771l84.559,-0l-0,241.833l58.404,-0l-0,-241.833l84.566,-0l0,-58.771Z" style="fill:#fff;fill-rule:nonzero;"/><path d="M1450.1,122.133c-7.341,7.342 -15.883,10.913 -26.104,10.913l-27.504,-0l-0,-73.304l27.741,-0.005c10.392,0.338 18.855,3.909 25.867,10.917c7,7 10.55,15.663 10.55,25.738c0,10.079 -3.55,18.741 -10.55,25.741Zm-25.737,-121.162l-86.646,-0l-0,300.604l58.775,-0l-0,-109.754l27.504,-0c26.333,-0 49.063,-9.379 67.554,-27.871c18.492,-18.492 27.867,-41.221 27.867,-67.558c-0,-26.334 -9.375,-49.063 -27.867,-67.555c-18.75,-18.754 -40.729,-27.866 -67.187,-27.866Z" style="fill:#169762;fill-rule:nonzero;"/><path d="M1655.82,59.742l27.504,-0c10.221,-0 18.758,3.57 26.042,10.845c7.141,7.484 10.612,16.046 10.612,26.171c0,10.079 -3.55,18.742 -10.546,25.738c-7.345,7.346 -15.887,10.916 -26.108,10.916l-27.504,0l-0,-73.67Zm108.079,88.104c9.75,-15.979 14.483,-32.688 14.483,-51.088c0,-26.441 -9.241,-49.283 -27.5,-67.921c-18.754,-18.754 -40.733,-27.866 -67.191,-27.866l-86.642,-0l-0,300.604l58.771,-0l-0,-109.754l10.004,-0l72.075,109.754l70.208,-0l-79.5,-120.929c14.571,-7.609 26.142,-18.359 35.292,-32.8Z" style="fill:#169762;fill-rule:nonzero;"/><path d="M2245.02,122.133c-7.346,7.342 -15.884,10.913 -26.104,10.913l-27.509,-0l0,-73.304l27.746,-0.005c10.392,0.338 18.854,3.909 25.867,10.917c7,7 10.55,15.663 10.55,25.738c-0,10.079 -3.55,18.741 -10.55,25.741Zm-25.738,-121.162l-86.646,-0l0,300.604l58.771,-0l0,-109.754l27.509,-0c26.333,-0 49.062,-9.379 67.554,-27.871c18.491,-18.492 27.866,-41.221 27.866,-67.558c0,-26.334 -9.375,-49.063 -27.866,-67.555c-18.75,-18.754 -40.73,-27.866 -67.188,-27.866Z" style="fill:#169762;fill-rule:nonzero;"/><path d="M2503.22,193.412l-73.65,0l37.137,-75.212l36.513,75.212Zm-192.113,108.163l65.155,-0l24.512,-49.392l131.175,0l24.146,49.392l64.779,-0l-154.121,-301.575l-155.646,301.575Z" style="fill:#169762;fill-rule:nonzero;"/><path d="M2736.92,59.742l27.508,-0c10.221,-0 18.759,3.57 26.042,10.845c7.142,7.484 10.612,16.046 10.612,26.171c0,10.079 -3.55,18.742 -10.554,25.738c-7.341,7.346 -15.879,10.916 -26.1,10.916l-27.508,0l-0,-73.67Zm72.787,120.904c14.575,-7.609 26.138,-18.359 35.296,-32.8c9.746,-15.979 14.479,-32.688 14.479,-51.088c0,-26.441 -9.241,-49.283 -27.495,-67.921c-18.755,-18.754 -40.734,-27.866 -67.192,-27.866l-86.646,-0l-0,300.604l58.771,-0l-0,-109.754l10.004,-0l72.071,109.754l70.212,-0l-79.5,-120.929Z" style="fill:#169762;fill-rule:nonzero;"/><path d="M2050.8,62.483l-0,-61.979l-175.867,0l0,300.2l175.867,0l-0,-61.983l-113.887,-0l-0,-57.304l113.887,-0l-0,-61.621l-113.887,-0l-0,-57.313l113.887,0Z" style="fill:#169762;fill-rule:nonzero;"/><path d="M1028.65,151.292c0,-48.15 39.171,-87.321 87.325,-87.321c12.746,-0 24.825,2.812 35.75,7.737l46.258,-46.254c-23.6,-15.433 -51.766,-24.442 -82.008,-24.442c-82.862,0 -150.283,67.417 -150.283,150.28c-0,30.245 9.012,58.408 24.446,82.008l46.254,-46.254c-4.929,-10.925 -7.742,-23.004 -7.742,-35.754Z" style="fill:#fff;fill-rule:nonzero;"/><path d="M1195.56,115.542c4.934,10.929 7.738,23.004 7.738,35.75c-0,48.154 -39.171,87.325 -87.321,87.325c-12.746,-0 -24.825,-2.813 -35.75,-7.738l-46.254,46.254c23.6,15.434 51.762,24.442 82.004,24.442c82.867,-0 150.288,-67.417 150.288,-150.283c-0,-30.242 -9.013,-58.405 -24.446,-82.005l-46.259,46.255Z" style="fill:#169762;fill-rule:nonzero;"/><path d="M545.217,175.029c-0,19.083 -6.442,34.804 -19.7,48.058c-13.496,13.496 -29.213,20.059 -48.05,20.059c-19.188,-0 -34.896,-6.55 -48.096,-20.096c-13.475,-13.129 -20.025,-28.833 -20.025,-48.021l-0,-174.116l-58.404,-0l-0,174.116c-0,34.838 12.45,64.95 37.008,89.508c24.562,24.559 54.679,37.017 89.517,37.017c34.587,0 64.579,-12.458 89.137,-37.017c24.563,-24.558 37.013,-54.67 37.013,-89.508l-0,-174.116l-58.4,-0l-0,174.116Z" style="fill:#fff;fill-rule:nonzero;"/></svg>