<?xml version="1.0" encoding="UTF-8" standalone="no"?><!DOCTYPE svg PUBLIC "-//W3C//DTD SVG 1.1//EN" "http://www.w3.org/Graphics/SVG/1.1/DTD/svg11.dtd"><svg width="100%" height="100%" viewBox="0 0 2699 987" version="1.1" xmlns="http://www.w3.org/2000/svg" xmlns:xlink="http://www.w3.org/1999/xlink" xml:space="preserve" xmlns:serif="http://www.serif.com/" style="fill-rule:evenodd;clip-rule:evenodd;stroke-linejoin:round;stroke-miterlimit:2;"><path d="M1930.69,0.079l-250.921,399.213l-247.05,-399.292l-162.638,663.592l135.842,-0l75.158,-320.705l198.605,320.905l198.608,-320.909l75.162,320.709l135.746,-0l-158.512,-663.513Z" style="fill:#fff;fill-rule:nonzero;"/><path d="M2532.92,1.625l-150.259,262.896l-149.495,-262.896l-166.813,-0l248.35,399.408l0,262.48l136.654,-0l0,-262.488l247.513,-399.4l-165.95,-0Z" style="fill:#fff;fill-rule:nonzero;"/><path d="M1160.17,138.125l-0,-136.692l-387.863,0l0,662.08l387.863,-0l-0,-136.7l-251.171,-0l0,-126.392l251.171,-0l-0,-135.896l-251.171,0l0,-126.4l251.171,0Z" style="fill:#fff;fill-rule:nonzero;"/><path d="M137.158,333.158c0,-26.683 4.742,-51.658 14.092,-74.237c9.358,-22.6 23.688,-43.679 42.6,-62.654c18.908,-18.967 39.9,-33.346 62.392,-42.725c22.466,-9.371 47.329,-14.121 73.946,-14.121c24.312,-0.183 47.541,3.892 68.708,11.912l102.075,-102.075c-49.729,-29.908 -107.954,-47.133 -170.213,-47.133c-182.675,-0 -330.758,148.087 -330.758,330.758c0,62.259 17.225,120.479 47.133,170.209l101.804,-101.8c-7.795,-20.921 -11.779,-43.817 -11.779,-68.134Z" style="fill:#0f7cbb;fill-rule:nonzero;"/><path d="M661.525,332.883c0,-23.287 -2.438,-46.008 -7.017,-67.937l-182.995,-0l-137.496,137.492l177.075,-0c-11.738,31.158 -31.28,58.075 -58.221,80.137c-35.738,29.263 -75.908,43.488 -122.813,43.488c-26.529,-0 -51.379,-4.721 -73.87,-14.038c-5.15,-2.137 -10.363,-4.613 -15.496,-7.346l-5.813,-3.104l-98.712,98.708c54.608,39.813 121.837,63.363 194.591,63.363c182.679,-0 330.767,-148.088 330.767,-330.763Z" style="fill:#fff;fill-rule:nonzero;"/><path d="M106.275,930.95l-23.579,-48.567l-23.984,48.567l47.563,0Zm27.004,55.225l-13.3,-27.208l-74.971,-0l-13.504,27.208l-31.033,0l82.225,-161.208l81.421,161.208l-30.838,0Z" style="fill:#fff;fill-rule:nonzero;"/><path d="M369.129,824.95l0,93.704c0,11.092 -3.825,20.363 -11.483,28.021c-7.863,7.858 -17.129,11.692 -28.017,11.692c-11.075,-0 -20.354,-3.834 -28.008,-11.692c-7.859,-7.658 -11.692,-16.929 -11.692,-28.021l0,-93.704l-27.808,0l-0,93.704c-0,18.746 6.65,34.671 19.75,47.767c13.1,13.1 29.016,19.754 47.758,19.754c18.542,0 34.467,-6.654 47.567,-19.754c13.096,-13.096 19.746,-29.021 19.746,-47.767l-0,-93.704l-27.813,0Z" style="fill:#fff;fill-rule:nonzero;"/><path d="M571.133,852.958l0,133.217l-27.812,0l-0,-133.217l-32.042,0l0,-28.008l91.896,0l-0,28.008l-32.042,0Z" style="fill:#fff;fill-rule:nonzero;"/><path d="M1155.49,986.175l-21.158,-90.287l-53.808,90.266l-53.809,-90.266l-21.158,90.287l-28.816,0l39.899,-161.262l63.884,109.466l64.896,-109.437l38.895,161.233l-28.825,0Z" style="fill:#fff;fill-rule:nonzero;"/><path d="M1598.62,958.163l22.37,-0c5.446,-0 10.071,-2.021 13.705,-5.842c3.421,-3.833 5.241,-8.671 5.241,-14.308c0,-4.238 -1.216,-8.471 -3.633,-12.7c-2.617,-4.23 -5.442,-6.246 -8.658,-6.246l-29.025,-0l-0,39.096Zm-0,-67.113l25.591,0c3.229,0 6.05,-2.012 8.671,-5.846c2.617,-3.825 3.821,-7.858 3.821,-12.091c0,-5.842 -1.808,-10.68 -5.238,-14.513c-3.625,-3.821 -8.262,-5.642 -13.904,-5.642l-18.941,0l-0,38.092Zm18.941,-66.1c12.896,0 23.988,4.642 33.25,14.104c9.275,9.475 13.905,20.754 13.905,34.059c-0,5.437 -1.209,10.683 -3.421,15.925c-2.413,5.241 -5.442,9.666 -9.067,13.1c5.233,3.629 9.271,8.862 11.887,15.712c2.621,7.054 3.83,13.713 3.83,20.163c-0,13.295 -4.638,24.575 -13.705,34.054c-9.275,9.466 -20.35,14.108 -33.25,14.108l-50.383,0l0,-161.225l46.954,0Z" style="fill:#fff;fill-rule:nonzero;"/><rect x="1783.48" y="824.95" width="28.012" height="161.225" style="fill:#fff;fill-rule:nonzero;"/><path d="M2028.17,958.163l-0,28.012l-95.325,0l0,-161.225l28.004,0l0,133.213l67.321,-0Z" style="fill:#fff;fill-rule:nonzero;"/><path d="M2172.52,852.958l-0,38.696l52.808,0l0,27.817l-52.808,-0l-0,38.692l63.683,-0l0,28.012l-91.696,0l0,-161.225l91.696,0l0,28.008l-63.683,0Z" style="fill:#fff;fill-rule:nonzero;"/><path d="M2389.05,911.946c-2.446,-0.758 -5.258,-1.883 -8.638,-3.567c-3.562,-1.504 -6.383,-3.383 -8.82,-5.633c-2.442,-2.25 -4.692,-4.883 -6.755,-8.067c-4.696,-7.329 -7.141,-15.583 -7.141,-24.404c-0,-12.571 4.512,-23.275 13.337,-32.1c8.817,-8.817 19.329,-13.321 31.904,-13.321c11.45,0 21.405,3.754 30.034,11.259c8.441,7.508 13.508,16.895 14.825,28.158l-25.525,5.254c-0.188,-5.067 -2.25,-9.571 -5.821,-13.329c-3.746,-3.563 -8.254,-5.442 -13.513,-5.442c-5.446,0 -9.95,1.879 -13.7,5.629c-3.758,3.942 -5.633,8.45 -5.633,13.892c0,3.938 0.942,7.508 3,10.321c1.312,2.071 3.383,3.754 6.008,4.883c2.442,1.309 7.13,2.817 13.892,4.504c5.063,1.5 9.008,2.625 11.442,3.375c2.446,0.946 5.445,2.067 9.204,3.759c3.571,1.683 6.758,3.754 9.387,6.004c2.625,2.446 5.063,5.258 7.13,8.637c5.07,8.071 7.695,16.7 7.695,26.088c0,13.325 -4.696,24.587 -14.075,34.162c-9.575,9.567 -21.025,14.263 -34.35,14.263c-12.575,-0 -23.65,-4.321 -32.85,-13.138c-9.196,-8.641 -14.45,-19.141 -15.387,-31.729l24.962,-4.871c3.009,15.95 10.7,23.838 23.275,23.838c6.192,-0 11.45,-2.258 15.959,-6.567c4.308,-4.321 6.566,-9.766 6.566,-15.958c0,-4.317 -1.12,-8.254 -3.566,-12.013c-1.692,-2.445 -4.134,-4.508 -6.946,-5.816c-2.813,-1.317 -8.067,-2.821 -15.396,-4.884c-4.687,-1.312 -8.067,-2.25 -10.504,-3.187Z" style="fill:#fff;fill-rule:nonzero;"/><path d="M791.658,852.317c-29.362,-0 -53.246,23.879 -53.246,53.241c0,29.359 23.884,53.25 53.246,53.25c29.363,0 53.246,-23.891 53.246,-53.25c0,-29.362 -23.883,-53.241 -53.246,-53.241Zm0,133.858c-44.454,0 -80.612,-36.167 -80.612,-80.617c-0,-44.454 36.158,-80.612 80.612,-80.612c44.455,-0 80.613,36.158 80.613,80.612c-0,44.45 -36.158,80.617 -80.613,80.617Z" style="fill:#fff;fill-rule:nonzero;"/><path d="M1369.4,852.317c-29.362,-0 -53.25,23.879 -53.25,53.241c0,29.359 23.888,53.25 53.25,53.25c29.359,0 53.246,-23.891 53.246,-53.25c0,-29.362 -23.887,-53.241 -53.246,-53.241Zm0,133.858c-44.454,0 -80.617,-36.167 -80.617,-80.617c0,-44.454 36.163,-80.612 80.617,-80.612c44.45,-0 80.613,36.158 80.613,80.612c-0,44.45 -36.163,80.617 -80.613,80.617Z" style="fill:#fff;fill-rule:nonzero;"/></svg>