<?xml version="1.0" encoding="UTF-8" standalone="no"?><!DOCTYPE svg PUBLIC "-//W3C//DTD SVG 1.1//EN" "http://www.w3.org/Graphics/SVG/1.1/DTD/svg11.dtd"><svg width="100%" height="100%" viewBox="0 0 3276 440" version="1.1" xmlns="http://www.w3.org/2000/svg" xmlns:xlink="http://www.w3.org/1999/xlink" xml:space="preserve" xmlns:serif="http://www.serif.com/" style="fill-rule:evenodd;clip-rule:evenodd;stroke-linejoin:round;stroke-miterlimit:2;"><path d="M953.208,360.45c-38.479,-0 -70.604,-13.417 -98.195,-41.013c-27.596,-27.591 -41.009,-59.712 -41.009,-98.191c0,-38.275 13.796,-71.479 41.009,-98.688c27.258,-27.262 59.379,-40.516 98.195,-40.516c39.146,-0 71.425,13.254 98.688,40.516c27.258,27.263 40.512,59.542 40.512,98.688c0,38.812 -13.254,70.929 -40.512,98.191c-27.213,27.213 -60.417,41.013 -98.688,41.013Zm0,-357.438c-59.946,0 -111.854,21.513 -154.287,63.946c-42.433,42.434 -63.95,94.342 -63.95,154.288c-0,59.941 21.517,111.85 63.95,154.287c42.437,42.429 94.346,63.946 154.287,63.946c59.938,0 111.85,-21.517 154.284,-63.946c42.429,-42.437 63.945,-94.346 63.945,-154.287c0,-59.946 -21.516,-111.854 -63.945,-154.288c-42.429,-42.433 -94.342,-63.946 -154.284,-63.946Z" style="fill:#fff;fill-rule:nonzero;"/><rect x="1808.69" y="3.012" width="85.333" height="436.458" style="fill:#e83667;fill-rule:nonzero;"/><path d="M2713.83,282.929l-106.592,0l53.751,-108.85l52.841,108.85Zm-278.033,156.542l94.292,-0l35.474,-71.484l189.846,0l34.946,71.484l93.75,-0l-223.05,-436.459l-225.258,436.459Z" style="fill:#e83667;fill-rule:nonzero;"/><path d="M3054.35,88.346l39.937,-0c14.838,-0 27.234,5.183 37.809,15.75c10.366,10.862 15.408,23.296 15.408,38c0,14.633 -5.15,27.204 -15.317,37.366c-10.662,10.663 -23.062,15.851 -37.9,15.851l-39.937,-0l-0,-106.967Zm105.683,175.55c21.158,-11.05 37.954,-26.658 51.242,-47.625c14.15,-23.204 21.033,-47.467 21.033,-74.175c0,-38.396 -13.421,-71.563 -39.929,-98.621c-27.229,-27.229 -59.142,-40.463 -97.562,-40.463l-125.805,0l0,436.467l85.338,0l-0,-159.362l14.521,-0l104.65,159.362l101.941,0l-115.429,-175.583Z" style="fill:#e83667;fill-rule:nonzero;"/><path d="M1357.96,221.246c-0,-17.546 3.116,-33.971 9.266,-48.821c6.154,-14.858 15.575,-28.721 28.013,-41.196c12.433,-12.471 26.237,-21.929 41.025,-28.096c14.775,-6.162 31.125,-9.287 48.625,-9.287c15.991,-0.117 31.266,2.558 45.183,7.833l67.592,-67.592l-2.313,-1.354c-20.112,-11.791 -42.221,-20.196 -65.687,-24.983c-15.167,-3.146 -30.254,-4.738 -44.859,-4.738c-14.595,0 -29.762,1.592 -45.2,4.755c-49.337,10.462 -90.933,35.845 -123.633,75.446c-32.779,39.691 -49.4,86.037 -49.4,137.758c-0,40.146 10.079,77.375 29.971,110.641l1.346,2.25l67.812,-67.812c-5.121,-13.754 -7.741,-28.812 -7.741,-44.804Z" style="fill:#fff;fill-rule:nonzero;"/><path d="M1487.41,266.8l116.441,-0c-7.721,20.492 -20.571,38.192 -38.287,52.704c-23.5,19.238 -49.917,28.592 -80.759,28.592c-17.446,-0 -33.787,-3.104 -48.575,-9.234c-3.387,-1.404 -6.816,-3.025 -10.191,-4.829l-3.821,-2.037l-65.884,65.879l5.784,3.979c23.712,16.325 50.587,27.575 80.041,33.488c14.5,2.741 28.896,4.137 42.788,4.137c13.912,0 28.167,-1.404 42.383,-4.171c50.509,-10.054 92.909,-35.446 126.025,-75.466c33.155,-40.055 49.963,-86.78 49.963,-138.871l-0,-44.579l-125.492,-0l-90.416,90.408Z" style="fill:#e83667;fill-rule:nonzero;"/><path d="M163.179,175.921c-10.666,10.666 -23.067,15.846 -37.908,15.846l-39.938,-0l0,-106.434l40.284,-0.004c15.087,0.488 27.379,5.671 37.562,15.85c10.159,10.167 15.313,22.738 15.313,37.371c-0,14.637 -5.154,27.208 -15.313,37.371Zm-37.375,-175.921l-125.804,0l0,436.471l85.333,-0l0,-159.363l39.938,0c38.237,0 71.241,-13.616 98.087,-40.466c26.854,-26.846 40.467,-59.85 40.467,-98.092c0,-38.238 -13.613,-71.242 -40.467,-98.088c-27.225,-27.229 -59.133,-40.462 -97.554,-40.462Z" style="fill:#fff;fill-rule:nonzero;"/><path d="M454.533,85.333l39.938,0c14.837,0 27.233,5.184 37.808,15.75c10.367,10.867 15.413,23.296 15.413,38c-0,14.634 -5.155,27.209 -15.317,37.371c-10.667,10.663 -23.067,15.846 -37.904,15.846l-39.938,-0l0,-106.967Zm156.93,127.929c14.15,-23.204 21.029,-47.466 21.029,-74.179c-0,-38.391 -13.417,-71.558 -39.93,-98.621c-27.229,-27.229 -59.141,-40.462 -97.562,-40.462l-125.804,0l-0,436.471l85.337,-0l0,-159.363l14.521,0l104.654,159.363l101.942,-0l-115.433,-175.588c21.162,-11.046 37.954,-26.658 51.246,-47.621Z" style="fill:#fff;fill-rule:nonzero;"/><path d="M2217.62,351.512c-36,0 -66.059,-12.554 -91.888,-38.387c-25.829,-25.829 -38.383,-55.883 -38.383,-91.883c-0,-35.821 12.912,-66.9 38.383,-92.371c25.504,-25.5 55.567,-37.9 91.888,-37.9c35.558,-0 65.037,11.708 90.058,35.692l61.913,-61.913c-42.005,-40.938 -93.105,-61.738 -151.971,-61.738c-59.938,0 -111.85,21.513 -154.284,63.942c-42.433,42.438 -63.945,94.346 -63.945,154.288c-0,59.937 21.512,111.85 63.945,154.283c42.438,42.429 94.346,63.946 154.284,63.946c59.687,-0 111.4,-21.35 153.733,-63.421l-62.158,-62.163c-25.329,24.955 -56.125,37.625 -91.575,37.625Z" style="fill:#e83667;fill-rule:nonzero;"/></svg>